<svg xmlns="http://www.w3.org/2000/svg" viewBox="0 0 636.17 170.52"><defs><style>.cls-1{fill:#1abc9c;}.cls-2{fill:#fff;}</style></defs><title>Asset 2</title><g id="Layer_2" data-name="Layer 2"><g id="Layer_1-2" data-name="Layer 1"><path class="cls-1" d="M207.79,84.91c0-20.27,15.5-35.37,36.56-35.37,20.87,0,36.47,15,36.47,35.37s-15.6,35.37-36.47,35.37C223.29,120.28,207.79,105.18,207.79,84.91Zm65.67,0c0-16.59-12.42-28.81-29.11-28.81s-29.3,12.22-29.3,28.81,12.51,28.81,29.3,28.81S273.46,101.5,273.46,84.91Z"/><path class="cls-1" d="M343.9,89.38v30.3h-7.06V90.08c0-11-5.76-16.69-15.69-16.69-11.23,0-18.28,7-18.28,18.87v27.42h-7.06V67.43h6.76v9.63c3.77-6.36,10.83-10,19.87-10C335.16,67,343.9,74.38,343.9,89.38Z"/><path class="cls-1" d="M408.77,95.74H365.06c.79,10.93,9.14,18.18,20.56,18.18,6.36,0,12-2.28,16-6.85l4,4.57c-4.67,5.56-11.92,8.54-20.17,8.54-16.29,0-27.42-11.13-27.42-26.63S368.83,67,383.54,67s25.33,10.83,25.33,26.52C408.87,94.15,408.77,95,408.77,95.74Zm-43.71-5.27h37.05c-.89-10.23-8.34-17.38-18.57-17.38S366,80.24,365.06,90.47Z"/><path class="cls-1" d="M418.6,84.91c0-20.37,15.5-35.37,36.46-35.37,10.14,0,19.28,3.38,25.44,10.14l-4.67,4.67c-5.67-5.77-12.62-8.25-20.57-8.25-16.79,0-29.4,12.32-29.4,28.81s12.61,28.81,29.4,28.81c7.95,0,14.9-2.48,20.57-8.34l4.67,4.67c-6.16,6.75-15.3,10.23-25.54,10.23C434.1,120.28,418.6,105.28,418.6,84.91Z"/><path class="cls-1" d="M568.42,50.14v69.54h-7V64.05L534,110.84h-3.47L503.25,64.35v55.33h-7.06V50.14h6.06l30.2,51.56,29.91-51.56Z"/><path class="cls-1" d="M584.41,111.24l2.88-5.66c5,4.86,13.81,8.44,23,8.44,13,0,18.68-5.46,18.68-12.32,0-19.07-42.82-7.35-42.82-33.08,0-10.24,7.95-19.08,25.63-19.08,7.85,0,16,2.29,21.56,6.16l-2.48,5.86a35.85,35.85,0,0,0-19.08-5.76c-12.72,0-18.38,5.66-18.38,12.62,0,19.07,42.82,7.55,42.82,32.88,0,10.24-8.14,19-25.93,19C599.81,120.28,589.58,116.6,584.41,111.24Z"/><circle class="cls-1" cx="85.26" cy="85.26" r="85.26"/><path class="cls-2" d="M106,36.92,86.71,133.59H68.76L85.05,52H64.47l3-15.06Z"/></g></g></svg>